<?xml version="1.0" encoding="UTF-8"?>
<svg version="1.1" xmlns="http://www.w3.org/2000/svg" width="1024" height="1024">
<path d="M0 0 C1.27186661 0.10836433 1.27186661 0.10836433 2.56942749 0.21891785 C5.33865875 0.4589342 8.10689258 0.70830055 10.875 0.9609375 C11.83674133 1.0483017 12.79848267 1.13566589 13.78936768 1.22567749 C81.40126688 7.44915454 155.59282292 17.58903899 215.875 50.3359375 C216.473125 50.65771973 217.07125 50.97950195 217.6875 51.31103516 C229.48519745 57.70251403 240.38949259 65.05213824 250.625 73.7109375 C251.23408203 74.22301758 251.84316406 74.73509766 252.47070312 75.26269531 C256.75176459 78.96623126 256.75176459 78.96623126 257.875 82.3359375 C258.535 82.3359375 259.195 82.3359375 259.875 82.3359375 C261.69795683 84.37958396 263.3897893 86.42379675 265.0625 88.5859375 C265.55210205 89.2140332 266.0417041 89.84212891 266.54614258 90.48925781 C277.875 105.2914539 277.875 105.2914539 277.875 110.3359375 C278.535 110.3359375 279.195 110.3359375 279.875 110.3359375 C280.12121094 109.48386719 280.36742187 108.63179688 280.62109375 107.75390625 C281.97789217 104.05546819 283.78731206 100.91988345 285.9375 97.6484375 C286.52543335 96.74520752 286.52543335 96.74520752 287.12524414 95.82373047 C290.95736214 90.03931504 295.04884104 84.33555249 299.875 79.3359375 C300.535 79.3359375 301.195 79.3359375 301.875 79.3359375 C301.875 78.6759375 301.875 78.0159375 301.875 77.3359375 C315.96359758 62.3535014 335.45803499 51.91905982 353.875 43.3359375 C354.55385254 43.01802246 355.23270508 42.70010742 355.93212891 42.37255859 C399.90205893 22.10010665 449.49479309 13.37856033 497.0625 6.3359375 C497.77428406 6.22980133 498.48606812 6.12366516 499.21942139 6.01431274 C505.83053325 5.03847326 512.18048927 4.22573107 518.875 4.3359375 C519.205 3.6759375 519.535 3.0159375 519.875 2.3359375 C521.02355469 2.366875 522.17210937 2.3978125 523.35546875 2.4296875 C531.38388293 2.4296875 539.38433363 1.41762051 547.36499023 0.61767578 C577.87050278 -2.41739044 577.87050278 -2.41739044 587.25 4.5234375 C594.42432312 12.21021228 594.46127405 19.52573541 594.42089844 29.58129883 C594.42965572 31.03360872 594.44014496 32.48590903 594.45220757 33.93819523 C594.48021391 37.92165321 594.48344197 41.90480121 594.48247957 45.88834333 C594.48571213 50.20249315 594.51173605 54.51651564 594.53475952 58.83059692 C594.57629664 67.30737459 594.59624878 75.78407498 594.60895979 84.2609396 C594.61987146 91.17083447 594.63962023 98.08065437 594.66546631 104.99050903 C594.66914864 105.97599025 594.67283098 106.96147147 594.67662489 107.97681576 C594.68414736 109.98127203 594.69168387 111.98572826 594.69923425 113.99018443 C594.78594414 137.41382988 594.82834647 160.83748925 594.86067855 184.26126403 C594.87162698 192.16656968 594.88428784 200.07187123 594.89782715 207.97717285 C594.947543 237.24022637 594.98191404 266.50326095 594.99659729 295.76635361 C594.99878058 300.11181549 595.0013901 304.45727679 595.00437927 308.80273819 C595.01273612 321.22525814 595.01549115 333.64775653 595.00957108 346.07027817 C595.00792175 349.8481166 595.00848796 353.62594405 595.01108932 357.40378189 C595.01396759 361.76919218 595.0120378 366.13457398 595.00635386 370.49998128 C595.0050747 372.0758635 595.00544126 373.65174815 595.0076766 375.2276293 C595.04372571 403.30117531 595.04372571 403.30117531 588.40625 411.05078125 C581.24811673 417.95567868 571.38520443 418.77742138 561.89453125 419.546875 C560.86035065 419.63989395 559.82617004 419.7329129 558.76065063 419.82875061 C556.54984865 420.02739644 554.33867093 420.22189772 552.12716675 420.41256714 C546.26714175 420.92088899 540.41095315 421.46981303 534.5546875 422.01953125 C533.38294479 422.12924759 532.21120209 422.23896393 531.00395203 422.352005 C423.32677991 432.01497636 423.32677991 432.01497636 329.875 480.3359375 C328.85599609 481.18671875 328.85599609 481.18671875 327.81640625 482.0546875 C318.28566831 490.68297681 312.09242033 503.05440274 307.18212891 514.72558594 C304.24283026 521.43705581 300.11077702 527.05266737 293.3125 530.2109375 C282.72066694 533.50936133 269.52215814 533.65951657 259.5 528.6484375 C253.21824072 523.1145067 249.55292676 517.20361051 246.0625 509.6484375 C242.09487125 501.41248817 237.88532956 494.28365791 231.875 487.3359375 C230.96041016 486.27246094 230.96041016 486.27246094 230.02734375 485.1875 C178.27781127 429.59246086 67.69064742 426.36192909 -2.19824219 419.93310547 C-3.20250748 419.83913986 -4.20677277 419.74517426 -5.24147034 419.64836121 C-7.09705306 419.47566585 -8.9530984 419.307831 -10.80967712 419.14619446 C-20.25196928 418.26763634 -28.21035472 417.24954578 -35.125 410.3359375 C-40.89513439 402.40162821 -40.8300384 394.03743776 -40.74645996 384.64033508 C-40.75079414 383.05688762 -40.75731482 381.4734449 -40.76582003 379.89001435 C-40.78275464 375.5591154 -40.76867038 371.22879768 -40.74930525 366.89792955 C-40.73384226 362.21965057 -40.74728928 357.54144114 -40.75704956 352.86315918 C-40.77155939 343.70728713 -40.7593596 334.55163719 -40.73793632 325.3957862 C-40.71390266 314.73230381 -40.71564209 304.06887205 -40.71824223 293.40536859 C-40.72193054 274.38046982 -40.70112141 255.3556756 -40.66699219 236.33081055 C-40.63388804 217.87049722 -40.61973648 199.41029358 -40.62597656 180.94995117 C-40.63274001 160.8424417 -40.6302827 140.73497814 -40.61061716 120.62747544 C-40.60957768 119.56434877 -40.60853819 118.5012221 -40.6074672 117.40587946 C-40.60537632 115.27068039 -40.60326535 113.13548133 -40.60113403 111.00028229 C-40.59423844 103.56699556 -40.5935691 96.13372299 -40.59501648 88.70043373 C-40.59645589 79.64434449 -40.58677041 70.58834469 -40.56307012 61.53228513 C-40.55120782 56.91167873 -40.54408659 52.29119701 -40.54990768 47.6705761 C-40.55507868 43.44105601 -40.54639427 39.21179939 -40.52663308 34.98232438 C-40.52189274 33.4522335 -40.52219406 31.92211697 -40.52804345 30.39202992 C-40.53522937 28.31130473 -40.52394343 26.23145151 -40.50811005 24.15079212 C-40.50653884 22.9954078 -40.50496764 21.84002348 -40.50334883 20.64962751 C-39.70745034 13.67891509 -36.30837218 7.99976421 -31.125 3.3359375 C-21.75410473 -2.33210953 -10.43617743 -0.91842958 0 0 Z M6.875 50.3359375 C6.77766753 52.06137317 6.75128518 53.79083477 6.75195217 55.5190134 C6.74996112 56.64962462 6.74797007 57.78023584 6.74591869 58.945108 C6.74883153 60.2028624 6.75174437 61.46061681 6.75474548 62.75648499 C6.7543099 64.09378357 6.75343523 65.43108207 6.75215632 66.76838011 C6.74990885 70.46024147 6.75393605 74.1520741 6.75893438 77.84393179 C6.76323511 81.81872982 6.76179272 85.79352611 6.7610321 89.76832581 C6.76050663 96.66060333 6.76365589 103.55287141 6.76926994 110.44514656 C6.77738176 120.41033622 6.77999984 130.3755213 6.78125793 140.34071391 C6.78344896 156.50684897 6.7901104 172.672979 6.79956055 188.83911133 C6.80873337 204.54711888 6.81581484 220.25512507 6.82006836 235.96313477 C6.82033108 236.93065861 6.82059381 237.89818245 6.82086449 238.8950252 C6.82216949 243.74859364 6.8234332 248.6021621 6.82467639 253.45573056 C6.83505057 293.74913637 6.85267025 334.04253665 6.875 374.3359375 C9.59400034 374.65730019 12.31304632 374.97826811 15.03211975 375.29901123 C15.79697268 375.38945143 16.56182561 375.47989162 17.3498559 375.57307243 C22.93598466 376.23157584 28.52522897 376.84400298 34.12109375 377.4140625 C107.98840019 385.08687517 186.76956278 393.54955499 248.14599609 439.16601562 C249.98662675 440.41146918 251.88133723 441.35922122 253.875 442.3359375 C253.9667049 407.20977409 254.03711437 372.08363504 254.07926132 336.95737696 C254.0842637 332.80337155 254.08944103 328.64936638 254.09472656 324.49536133 C254.09630043 323.25496388 254.09630043 323.25496388 254.09790608 321.98950791 C254.11527592 308.628179 254.1467946 295.26691947 254.18361118 281.90563161 C254.22111611 268.17929322 254.24325597 254.45299097 254.25135398 240.72660345 C254.25682203 232.26764508 254.27404505 223.80888283 254.30666587 215.34998488 C254.32793193 209.53672148 254.33417294 203.72355836 254.32900551 197.91025896 C254.32646229 194.56422793 254.33239173 191.21881043 254.3518219 187.8727951 C254.44478883 171.02779209 254.46249154 154.14118491 246.125 138.9609375 C245.78065918 138.30722168 245.43631836 137.65350586 245.08154297 136.97998047 C233.90801247 116.29446767 216.34193995 103.00379001 195.875 92.3359375 C195.24062012 92.00239258 194.60624023 91.66884766 193.95263672 91.32519531 C143.36539412 65.11216164 82.46663943 57.57117255 26.625 50.3984375 C25.72885986 50.28209961 24.83271973 50.16576172 23.90942383 50.04589844 C14.83522719 48.44039146 14.83522719 48.44039146 6.875 50.3359375 Z M524.875 50.9609375 C523.76238297 51.0924823 523.76238297 51.0924823 522.62728882 51.22668457 C467.02558319 57.86212413 404.36195403 65.80603289 354.875 93.3359375 C353.63580635 94.0007269 352.39621796 94.66478097 351.15625 95.328125 C343.7970117 99.32809205 337.12912217 103.75485828 330.875 109.3359375 C330.05515625 110.06167969 329.2353125 110.78742188 328.390625 111.53515625 C317.38916215 121.87038144 309.11565375 134.81097154 304.875 149.3359375 C304.62197963 150.16380075 304.36895926 150.99166401 304.1082716 151.84461403 C300.81500123 164.54863674 301.47814313 177.51012118 301.53442383 190.53662109 C301.53694773 193.28742214 301.53492487 196.03821558 301.53309631 198.78901672 C301.53153128 204.68799327 301.54085933 210.58686946 301.55780983 216.48582077 C301.58230058 225.01445843 301.59001534 233.54304809 301.5937738 242.0717171 C301.60032258 255.91242216 301.62024077 269.75307387 301.64868164 283.59375 C301.67626313 297.03027074 301.69747663 310.46677694 301.71020508 323.90332031 C301.71099325 324.73301395 301.71178142 325.56270759 301.71259347 326.41754346 C301.71650888 330.58031036 301.72029994 334.74307737 301.72402918 338.90584445 C301.75507602 373.38258052 301.80786864 407.85925323 301.875 442.3359375 C302.41271027 441.93091003 302.95042053 441.52588257 303.50442505 441.10858154 C304.21597748 440.57356018 304.92752991 440.03853882 305.66064453 439.48730469 C306.3633548 438.95852722 307.06606506 438.42974976 307.79006958 437.88494873 C324.67540043 425.33989357 342.74101017 415.9164449 362.32641602 408.33422852 C363.99538251 407.68048735 365.65778295 407.00966685 367.31225586 406.32006836 C373.89143165 403.58583972 380.58111807 401.5685591 387.4375 399.6484375 C389.58545203 399.0432555 391.73263576 398.43533751 393.87890625 397.82421875 C395.28378296 397.43036987 395.28378296 397.43036987 396.71704102 397.02856445 C398.83232914 396.53100147 398.83232914 396.53100147 399.875 395.3359375 C402.20575002 394.98499608 404.53965127 394.65484483 406.875 394.3359375 C409.09427509 393.88454538 411.30910105 393.4108532 413.51953125 392.91796875 C437.18847614 387.74899736 461.05359384 383.84635429 485.12713623 381.07684326 C489.127241 380.67684579 489.127241 380.67684579 492.875 379.3359375 C495.38181764 379.1330898 497.87177087 378.98037853 500.3828125 378.86328125 C508.77598075 378.41993005 517.14546922 377.81092933 525.51904297 377.08862305 C527.03108542 376.95972383 528.54347533 376.83484859 530.05615234 376.71362305 C532.28562285 376.53489612 534.51388063 376.34497532 536.7421875 376.15234375 C538.04269043 376.04349854 539.34319336 375.93465332 540.68310547 375.82250977 C544.02131289 375.54387836 544.02131289 375.54387836 546.875 373.3359375 C547.89913035 370.26354645 547.99930616 368.18679069 547.99804783 364.96923542 C548.00003888 363.84857569 548.00202993 362.72791596 548.00408131 361.57329684 C547.99971205 359.71874945 547.99971205 359.71874945 547.99525452 357.82673645 C547.99610894 356.51743642 547.99696337 355.20813639 547.99784368 353.8591606 C548.00008556 350.21742404 547.99607152 346.57571675 547.99106562 342.93398392 C547.98675693 339.00966461 547.98820784 335.08534701 547.9889679 331.161026 C547.98949286 324.35936401 547.98634888 317.5577116 547.98073006 310.75605202 C547.9726114 300.9219307 547.96999946 291.08781403 547.96874207 281.25368973 C547.96655212 265.29941357 547.95989359 249.34514252 547.95043945 233.39086914 C547.94126385 217.89054388 547.93418374 202.39022001 547.92993164 186.88989258 C547.92966892 185.93484216 547.92940619 184.97979175 547.92913551 183.99580041 C547.92783049 179.20470952 547.92656678 174.41361862 547.92532361 169.62252772 C547.91495279 129.8603274 547.89733603 90.09813279 547.875 50.3359375 C541.58297671 47.18992585 531.73894327 50.14760573 524.875 50.9609375 Z " fill="currentColor" transform="translate(234.125,333.6640625)"/>
<path d="M0 0 C9.26668911 6.73941026 9.4525979 21.21774203 11.22412109 31.76635742 C14.03093638 48.34300922 18.16159366 64.37337744 31.79296875 75.4765625 C45.59803204 85.00572123 64.24000637 86.99255065 80.41772461 89.92724609 C82.70934126 90.34555139 84.9971988 90.78093321 87.28515625 91.21875 C87.972715 91.3386731 88.66027374 91.45859619 89.3686676 91.58215332 C94.89684889 92.65862309 98.84440537 94.91625852 102.875 98.8125 C104.54782163 102.06520872 104.44242044 104.39743358 104 108 C101.35894953 112.64824884 97.87220932 114.27715005 93 116 C90.38419202 116.62718401 87.82851622 117.17647668 85.1875 117.6484375 C83.68357798 117.93481304 82.17967227 118.22127423 80.67578125 118.5078125 C78.35132438 118.94069943 76.02628442 119.37017738 73.70068359 119.796875 C45.7687997 124.95439356 45.7687997 124.95439356 24.30859375 142.35546875 C19.09728958 150.77975745 15.63730776 159.28552362 13.5 168.9375 C13.29060791 169.84121338 13.08121582 170.74492676 12.86547852 171.67602539 C11.83365521 176.15875491 10.85759563 180.650111 9.93359375 185.15625 C9.76472656 185.96328369 9.59585938 186.77031738 9.421875 187.60180664 C9.10879242 189.11151481 8.80719237 190.62367015 8.51953125 192.13842773 C7.26576846 198.19709394 5.2078882 202.52807453 0 206 C-4.71185778 206.68681317 -8.73650993 206.69895195 -12.9375 204.375 C-17.01004134 199.68540694 -18.465658 194.74275331 -19.61328125 188.72265625 C-19.89488452 187.30658138 -20.17679605 185.89056778 -20.45898438 184.47460938 C-20.88507998 182.28440513 -21.30663568 180.09349515 -21.72143555 177.90112305 C-24.27081542 164.54310223 -27.38154193 151.21440256 -36.58203125 140.734375 C-38 139 -38 139 -39 136 C-40.83082015 134.93044555 -40.83082015 134.93044555 -43 134 C-44.43924271 133.06517759 -45.87658082 132.12741947 -47.3125 131.1875 C-59.37590029 124.0291892 -72.96910084 121.79391594 -86.56958008 119.14257812 C-107.66911368 115.00735844 -107.66911368 115.00735844 -112 109 C-113.28544691 105.2239997 -113.20930782 103.56182624 -111.8125 99.8125 C-108.59780055 94.82417326 -105.24123934 93.54965106 -99.5625 92.1875 C-98.8929126 92.02427246 -98.2233252 91.86104492 -97.53344727 91.69287109 C-92.71925275 90.55020032 -87.87905595 89.57093576 -83.0234375 88.62109375 C-53.95432312 83.52143263 -53.95432312 83.52143263 -32.1875 64.875 C-24.85439313 52.20091834 -22.65293841 38.83612092 -20.2109375 24.5859375 C-16.78404617 5.23222891 -16.78404617 5.23222891 -11 1 C-10.38125 0.54625 -9.7625 0.0925 -9.125 -0.375 C-5.75019879 -1.36758859 -3.37754007 -0.88882633 0 0 Z " fill="currentColor" transform="translate(665,130)"/>
<path d="M0 0 C0.69480469 0.29648438 1.38960937 0.59296875 2.10546875 0.8984375 C5.14659284 2.05578837 8.15087063 2.86065004 11.3125 3.625 C12.38113281 3.88539063 13.44976563 4.14578125 14.55078125 4.4140625 C15.76314453 4.70410156 15.76314453 4.70410156 17 5 C17 5.33 17 5.66 17 6 C5.82493564 6.39058477 5.82493564 6.39058477 2 4 C0.6875 1.875 0.6875 1.875 0 0 Z " fill="currentColor" transform="translate(556,240)"/>
<path d="M0 0 C-3.42094242 2.28062828 -4.68187222 2.21925007 -8.6875 2.125 C-10.17830078 2.09792969 -10.17830078 2.09792969 -11.69921875 2.0703125 C-12.45847656 2.04710937 -13.21773437 2.02390625 -14 2 C-14 1.67 -14 1.34 -14 1 C-12.41913952 0.63495397 -10.83516093 0.28339494 -9.25 -0.0625 C-8.36828125 -0.25972656 -7.4865625 -0.45695313 -6.578125 -0.66015625 C-4.01320972 -0.99825872 -2.42908361 -0.81158635 0 0 Z " fill="currentColor" transform="translate(746,247)"/>
<path d="M0 0 C0.33 1.32 0.66 2.64 1 4 C1.66 4 2.32 4 3 4 C3 6.97 3 9.94 3 13 C0.89172945 9.83759418 0.66182535 8.49342531 0.375 4.8125 C0.30023437 3.91144531 0.22546875 3.01039063 0.1484375 2.08203125 C0.09945312 1.39496094 0.05046875 0.70789063 0 0 Z " fill="currentColor" transform="translate(674,163)"/>
<path d="M0 0 C-3.63423209 2.32590854 -6.77088331 2.16265833 -11 2 C-8.74490247 -2.51019507 -4.15738698 -0.70597137 0 0 Z " fill="currentColor" transform="translate(665,130)"/>
<path d="M0 0 C0.99 1.485 0.99 1.485 2 3 C1.34 3 0.68 3 0 3 C0 2.01 0 1.02 0 0 Z " fill="currentColor" transform="translate(193,735)"/>
<path d="M0 0 C4 1 4 1 4 1 Z " fill="currentColor" transform="translate(696,344)"/>
<path d="M0 0 C3 1 3 1 3 1 Z " fill="currentColor" transform="translate(267,758)"/>
<path d="M0 0 C3 1 3 1 3 1 Z " fill="currentColor" transform="translate(680,347)"/>
<path d="M0 0 C2 1 2 1 2 1 Z " fill="currentColor" transform="translate(622,783)"/>
<path d="M0 0 C2 1 2 1 2 1 Z " fill="currentColor" transform="translate(741,759)"/>
<path d="M0 0 C2 1 2 1 2 1 Z " fill="currentColor" transform="translate(241,755)"/>
<path d="M0 0 C2 1 2 1 2 1 Z " fill="currentColor" transform="translate(657,722)"/>
<path d="M0 0 C2 1 2 1 2 1 Z " fill="currentColor" transform="translate(309,713)"/>
<path d="M0 0 C2 1 2 1 2 1 Z " fill="currentColor" transform="translate(301,712)"/>
<path d="" fill="currentColor" transform="translate(0,0)"/>
<path d="M0 0 C2 1 2 1 2 1 Z " fill="currentColor" transform="translate(475,470)"/>
<path d="M0 0 C2 1 2 1 2 1 Z " fill="currentColor" transform="translate(645,407)"/>
<path d="M0 0 C2 1 2 1 2 1 Z " fill="currentColor" transform="translate(341,399)"/>
<path d="M0 0 C2 1 2 1 2 1 Z " fill="currentColor" transform="translate(688,397)"/>
<path d="M0 0 C2 1 2 1 2 1 Z " fill="currentColor" transform="translate(556,392)"/>
<path d="M0 0 C2 1 2 1 2 1 Z " fill="currentColor" transform="translate(600,255)"/>
<path d="" fill="currentColor" transform="translate(0,0)"/>
<path d="" fill="currentColor" transform="translate(0,0)"/>
<path d="" fill="currentColor" transform="translate(0,0)"/>
<path d="" fill="currentColor" transform="translate(0,0)"/>
<path d="" fill="currentColor" transform="translate(0,0)"/>
<path d="" fill="currentColor" transform="translate(0,0)"/>
<path d="" fill="currentColor" transform="translate(0,0)"/>
<path d="" fill="currentColor" transform="translate(0,0)"/>
<path d="" fill="currentColor" transform="translate(0,0)"/>
<path d="" fill="currentColor" transform="translate(0,0)"/>
<path d="" fill="currentColor" transform="translate(0,0)"/>
<path d="" fill="currentColor" transform="translate(0,0)"/>
<path d="" fill="currentColor" transform="translate(0,0)"/>
<path d="" fill="currentColor" transform="translate(0,0)"/>
<path d="" fill="currentColor" transform="translate(0,0)"/>
<path d="" fill="currentColor" transform="translate(0,0)"/>
<path d="" fill="currentColor" transform="translate(0,0)"/>
<path d="" fill="currentColor" transform="translate(0,0)"/>
<path d="" fill="currentColor" transform="translate(0,0)"/>
<path d="" fill="currentColor" transform="translate(0,0)"/>
<path d="" fill="currentColor" transform="translate(0,0)"/>
<path d="" fill="currentColor" transform="translate(0,0)"/>
<path d="" fill="currentColor" transform="translate(0,0)"/>
<path d="" fill="currentColor" transform="translate(0,0)"/>
<path d="" fill="currentColor" transform="translate(0,0)"/>
<path d="" fill="currentColor" transform="translate(0,0)"/>
<path d="" fill="currentColor" transform="translate(0,0)"/>
<path d="" fill="currentColor" transform="translate(0,0)"/>
<path d="" fill="currentColor" transform="translate(0,0)"/>
<path d="" fill="currentColor" transform="translate(0,0)"/>
<path d="" fill="currentColor" transform="translate(0,0)"/>
<path d="" fill="currentColor" transform="translate(0,0)"/>
<path d="" fill="currentColor" transform="translate(0,0)"/>
<path d="" fill="currentColor" transform="translate(0,0)"/>
<path d="" fill="currentColor" transform="translate(0,0)"/>
<path d="" fill="currentColor" transform="translate(0,0)"/>
<path d="" fill="currentColor" transform="translate(0,0)"/>
<path d="" fill="currentColor" transform="translate(0,0)"/>
<path d="" fill="currentColor" transform="translate(0,0)"/>
<path d="" fill="currentColor" transform="translate(0,0)"/>
<path d="" fill="currentColor" transform="translate(0,0)"/>
<path d="" fill="currentColor" transform="translate(0,0)"/>
<path d="" fill="currentColor" transform="translate(0,0)"/>
<path d="" fill="currentColor" transform="translate(0,0)"/>
<path d="" fill="currentColor" transform="translate(0,0)"/>
<path d="" fill="currentColor" transform="translate(0,0)"/>
<path d="" fill="currentColor" transform="translate(0,0)"/>
<path d="" fill="currentColor" transform="translate(0,0)"/>
<path d="" fill="currentColor" transform="translate(0,0)"/>
<path d="" fill="currentColor" transform="translate(0,0)"/>
<path d="" fill="currentColor" transform="translate(0,0)"/>
<path d="" fill="currentColor" transform="translate(0,0)"/>
<path d="" fill="currentColor" transform="translate(0,0)"/>
<path d="" fill="currentColor" transform="translate(0,0)"/>
<path d="" fill="currentColor" transform="translate(0,0)"/>
<path d="" fill="currentColor" transform="translate(0,0)"/>
<path d="" fill="currentColor" transform="translate(0,0)"/>
<path d="" fill="currentColor" transform="translate(0,0)"/>
<path d="" fill="currentColor" transform="translate(0,0)"/>
<path d="" fill="currentColor" transform="translate(0,0)"/>
<path d="" fill="currentColor" transform="translate(0,0)"/>
<path d="" fill="currentColor" transform="translate(0,0)"/>
<path d="" fill="currentColor" transform="translate(0,0)"/>
<path d="" fill="currentColor" transform="translate(0,0)"/>
<path d="" fill="currentColor" transform="translate(0,0)"/>
<path d="" fill="currentColor" transform="translate(0,0)"/>
<path d="" fill="currentColor" transform="translate(0,0)"/>
<path d="" fill="currentColor" transform="translate(0,0)"/>
<path d="" fill="currentColor" transform="translate(0,0)"/>
<path d="" fill="currentColor" transform="translate(0,0)"/>
<path d="" fill="currentColor" transform="translate(0,0)"/>
<path d="" fill="currentColor" transform="translate(0,0)"/>
<path d="" fill="currentColor" transform="translate(0,0)"/>
<path d="" fill="currentColor" transform="translate(0,0)"/>
<path d="" fill="currentColor" transform="translate(0,0)"/>
<path d="" fill="currentColor" transform="translate(0,0)"/>
<path d="" fill="currentColor" transform="translate(0,0)"/>
<path d="" fill="currentColor" transform="translate(0,0)"/>
<path d="" fill="currentColor" transform="translate(0,0)"/>
<path d="" fill="currentColor" transform="translate(0,0)"/>
<path d="" fill="currentColor" transform="translate(0,0)"/>
<path d="" fill="currentColor" transform="translate(0,0)"/>
<path d="" fill="currentColor" transform="translate(0,0)"/>
<path d="" fill="currentColor" transform="translate(0,0)"/>
<path d="" fill="currentColor" transform="translate(0,0)"/>
<path d="" fill="currentColor" transform="translate(0,0)"/>
<path d="" fill="currentColor" transform="translate(0,0)"/>
<path d="" fill="currentColor" transform="translate(0,0)"/>
<path d="" fill="currentColor" transform="translate(0,0)"/>
<path d="" fill="currentColor" transform="translate(0,0)"/>
<path d="" fill="currentColor" transform="translate(0,0)"/>
<path d="" fill="currentColor" transform="translate(0,0)"/>
<path d="" fill="currentColor" transform="translate(0,0)"/>
<path d="" fill="currentColor" transform="translate(0,0)"/>
<path d="" fill="currentColor" transform="translate(0,0)"/>
<path d="" fill="currentColor" transform="translate(0,0)"/>
<path d="" fill="currentColor" transform="translate(0,0)"/>
<path d="" fill="currentColor" transform="translate(0,0)"/>
<path d="" fill="currentColor" transform="translate(0,0)"/>
<path d="" fill="currentColor" transform="translate(0,0)"/>
<path d="" fill="currentColor" transform="translate(0,0)"/>
<path d="" fill="currentColor" transform="translate(0,0)"/>
<path d="" fill="currentColor" transform="translate(0,0)"/>
<path d="" fill="currentColor" transform="translate(0,0)"/>
<path d="" fill="currentColor" transform="translate(0,0)"/>
<path d="" fill="currentColor" transform="translate(0,0)"/>
<path d="" fill="currentColor" transform="translate(0,0)"/>
<path d="" fill="currentColor" transform="translate(0,0)"/>
<path d="" fill="currentColor" transform="translate(0,0)"/>
<path d="" fill="currentColor" transform="translate(0,0)"/>
<path d="" fill="currentColor" transform="translate(0,0)"/>
<path d="" fill="currentColor" transform="translate(0,0)"/>
<path d="" fill="currentColor" transform="translate(0,0)"/>
<path d="" fill="currentColor" transform="translate(0,0)"/>
</svg>
